<?xml version="1.0" encoding="utf-8"?>
<!-- Generator: Adobe Illustrator 24.1.3, SVG Export Plug-In . SVG Version: 6.00 Build 0)  -->
<svg version="1.1" id="Lag_1" xmlns="http://www.w3.org/2000/svg" xmlns:xlink="http://www.w3.org/1999/xlink" x="0px" y="0px"
	 viewBox="0 0 337.02 156.26" style="enable-background:new 0 0 337.02 156.26;" xml:space="preserve">
<style type="text/css">
	.st0{fill:#010101;}
	.st1{fill:#018C01;}
	.st2{fill:#FEFEFE;}
</style>
<g>
	<polygon class="st0" points="17.11,16.8 81.31,16.8 98.39,140.5 65.2,140.5 65.2,120.68 76.02,120.68 64.48,34.47 35.62,34.47 
		35.62,120.92 55.58,120.92 55.58,140.5 17.11,140.5 	"/>
	<circle class="st1" cx="50.44" cy="68.44" r="8.31"/>
	<g>
		<path class="st2" d="M14.41,15.01c102.38,0,204.77,0,307.15,0c0,42.59,0,85.18,0,127.78c-102.38,0-204.77,0-307.15,0
			C14.41,100.19,14.41,57.6,14.41,15.01z M65.08,120.81c-0.01,0.18-0.02,0.26-0.02,0.34c0,6.31,0,12.62-0.01,18.93
			c0,0.43,0.14,0.5,0.53,0.5c4.54-0.01,9.07-0.01,13.61-0.01c6.18,0,12.35,0,18.53,0.01c0.47,0,0.66-0.1,0.54-0.61
			c-0.11-0.48-0.16-0.97-0.23-1.45c-0.35-2.6-16.56-118.95-16.88-121.26c-0.05-0.37-0.13-0.55-0.58-0.55
			c-20.93,0.01-41.86,0.01-62.79,0.01c-0.18,0-0.36,0.02-0.58,0.03c0,0.22,0,0.39,0,0.56c0,40.9,0,81.81-0.01,122.71
			c0,0.45,0.11,0.57,0.56,0.57c12.47-0.01,24.94-0.01,37.41,0c0.49,0,0.59-0.15,0.59-0.61c-0.01-6.16-0.01-12.31-0.01-18.47
			c0-0.7,0-0.7-0.7-0.7c-6.19,0-12.38,0-18.58,0c-0.2,0-0.4,0-0.63,0c0-28.81,0-57.56,0-86.34c9.46,0,18.91,0,28.39,0
			c3.92,28.76,7.84,57.52,11.77,86.34C72.38,120.81,68.75,120.81,65.08,120.81z M50.44,76.7c4.46,0.25,8.03-3.87,8.09-7.91
			c0.04-2.45-0.78-4.54-2.48-6.26c-1.53-1.55-3.5-2.41-5.59-2.35c-4.3,0.12-8.01,3.33-8.1,8.28C42.27,72.88,46.02,76.93,50.44,76.7z
			 M313.59,132.43c-1.34-2.44-2.61-4.75-3.88-7.06c-0.79-1.45-1.58-2.9-2.39-4.34c-0.06-0.11-0.22-0.22-0.33-0.22
			c-1.21-0.02-2.41-0.01-3.63-0.01c0,6.63,0,13.22,0,19.81c1.29,0,2.56,0,3.87,0c0-3.81,0-7.59,0-11.5
			c1.14,2.07,2.23,4.03,3.31,5.99c0.97,1.77,1.94,3.53,2.92,5.3c0.06,0.11,0.22,0.22,0.33,0.23c1.21,0.02,2.41,0.01,3.64,0.01
			c0-6.63,0-13.21,0-19.82c-1.29,0-2.56,0-3.85,0C313.59,124.66,313.59,128.47,313.59,132.43z M149.93,132.42
			c-1.34-2.44-2.61-4.75-3.88-7.06c-0.8-1.45-1.58-2.9-2.38-4.35c-0.05-0.1-0.19-0.21-0.29-0.21c-1.22-0.01-2.44-0.01-3.66-0.01
			c0,6.64,0,13.23,0,19.8c1.3,0,2.57,0,3.89,0c0-3.81,0-7.59,0-11.44c0.36,0.63,0.68,1.19,0.99,1.76c1.59,2.9,3.2,5.79,4.75,8.71
			c0.39,0.74,0.8,1.17,1.71,1.03c0.65-0.1,1.33-0.02,1.99-0.02c0.25,0,0.5,0,0.73,0c0-6.65,0-13.22,0-19.82c-1.29,0-2.56,0-3.85,0
			C149.93,124.66,149.93,128.47,149.93,132.42z M256.63,133.29c0.33,0.72,0.65,1.43,0.96,2.14c0.72,1.61,1.43,3.23,2.16,4.83
			c0.07,0.16,0.29,0.36,0.45,0.36c1.39,0.03,2.79,0.02,4.22,0.02c-0.58-1.27-1.15-2.49-1.7-3.72c-0.55-1.23-1.08-2.47-1.63-3.73
			c0.07-0.04,0.17-0.11,0.27-0.16c1.37-0.63,1.94-1.75,1.94-3.21c0.01-1.93,0.06-3.85-0.02-5.78c-0.08-1.93-1.32-3.19-3.22-3.22
			c-3.31-0.06-6.62-0.02-9.92-0.02c-0.15,0-0.29,0.02-0.41,0.02c0,6.64,0,13.22,0,19.79c1.36,0,2.69,0,4.06,0c0-2.45,0-4.88,0-7.32
			C254.77,133.29,255.68,133.29,256.63,133.29z M202.39,112.5c-1.11-2.49-2.21-4.97-3.32-7.45c0.06-0.05,0.09-0.09,0.13-0.11
			c1.52-0.63,2.1-1.83,2.09-3.4c-0.01-1.81,0-3.61,0-5.42c0-2.02-1.36-3.46-3.46-3.46c-3.19,0.01-6.38,0-9.57,0
			c-0.18,0-0.36,0-0.55,0c0,6.64,0,13.23,0,19.81c1.37,0,2.7,0,4.08,0c0-2.46,0-4.89,0-7.33c0.96,0,1.88,0,2.8,0
			c0.08,0.15,0.17,0.29,0.23,0.44c0.97,2.18,1.93,4.35,2.89,6.53c0.12,0.28,0.28,0.4,0.61,0.39
			C199.67,112.49,201.02,112.5,202.39,112.5z M257.09,112.5c3.31,0,6.59,0.06,9.86-0.02c1.84-0.05,2.99-1.46,3.01-3.15
			c0.05-4.5,0.03-9,0-13.5c0-0.5-0.19-1.04-0.42-1.5c-0.64-1.27-1.78-1.69-3.14-1.68c-2.93,0.02-5.86,0-8.8,0c-0.16,0-0.33,0-0.5,0
			C257.09,99.29,257.09,105.87,257.09,112.5z M268.66,140.63c3.32,0,6.59,0.06,9.86-0.02c1.84-0.05,2.98-1.45,3-3.12
			c0.06-4.52,0.03-9.03,0-13.55c0-0.5-0.21-1.04-0.44-1.49c-0.62-1.24-1.73-1.66-3.06-1.66c-2.93,0.01-5.87,0-8.8,0
			c-0.18,0-0.36,0-0.56,0C268.66,127.42,268.66,134,268.66,140.63z M159.16,120.79c0,6.65,0,13.23,0,19.84c3.23,0,6.44,0,9.64,0
			c0.07,0,0.14,0.01,0.2,0c1.83-0.19,2.98-1.5,3-3.2c0.05-4.48,0.02-8.96,0.01-13.45c0-0.86-0.34-1.61-0.93-2.24
			c-0.64-0.69-1.47-0.95-2.38-0.95C165.53,120.79,162.36,120.79,159.16,120.79z M206.41,127.01c0-1.08,0.02-2.1-0.01-3.12
			c-0.01-0.39-0.1-0.8-0.26-1.15c-0.64-1.36-1.76-1.96-3.25-1.95c-2,0.02-3.99,0-5.99,0.01c-1.93,0.01-3.26,1.43-3.27,3.29
			c-0.02,4.42-0.02,8.83,0,13.25c0.01,1.86,1.34,3.3,3.31,3.3c0.97,0,1.94,0.01,2.92,0c1.34-0.02,2.68,0,4.01-0.12
			c1.42-0.13,2.5-1.48,2.52-2.86c0.05-2.49,0.01-4.98,0.01-7.47c0-0.13-0.02-0.26-0.03-0.37c-2.22,0-4.4,0-6.59,0
			c0,1.26,0,2.49,0,3.77c0.89,0,1.75,0,2.63,0c0,0.96-0.01,1.88,0,2.8c0,0.35-0.2,0.37-0.46,0.37c-1.26-0.01-2.52-0.01-3.79,0
			c-0.35,0-0.48-0.11-0.47-0.47c0.01-3.72,0.01-7.43,0-11.15c0-0.35,0.11-0.48,0.47-0.47c1.23,0.02,2.46,0.01,3.68,0
			c0.41,0,0.58,0.16,0.57,0.58c-0.02,0.59,0,1.18,0,1.76C203.79,127.01,205.08,127.01,206.41,127.01z M121.39,92.68
			c-0.01,0.09-0.02,0.14-0.02,0.19c0,5.51-0.01,11.01,0.02,16.52c0,0.48,0.2,1,0.42,1.44c0.65,1.27,1.78,1.69,3.15,1.68
			c2-0.02,3.99,0,5.99-0.01c1.97,0,3.3-1.44,3.31-3.29c0.02-5.34,0.01-10.67,0.01-16.01c0-0.17,0-0.33,0-0.52c-1.38,0-2.72,0-4.09,0
			c0,0.21,0,0.39,0,0.57c0,4.91-0.01,9.82,0.01,14.73c0,0.53-0.16,0.66-0.67,0.64c-1.16-0.04-2.32-0.04-3.48,0
			c-0.49,0.02-0.59-0.16-0.59-0.61c0.02-4.93,0.01-9.85,0.01-14.78c0-0.18,0-0.36,0-0.56C124.08,92.68,122.75,92.68,121.39,92.68z
			 M178.38,92.68c0,0.19,0,0.34,0,0.49c0,4.96-0.01,9.92,0.01,14.88c0,0.45-0.12,0.59-0.57,0.58c-1.18-0.03-2.35-0.03-3.53,0
			c-0.5,0.01-0.63-0.13-0.63-0.63c0.02-4.93,0.01-9.85,0.01-14.78c0-0.18,0-0.36,0-0.53c-1.4,0-2.74,0-4.07,0
			c-0.01,0.08-0.01,0.13-0.01,0.18c0,5.49-0.03,10.98,0.02,16.47c0.02,1.74,1.28,3.11,3.18,3.15c2.15,0.04,4.3,0.02,6.45,0
			c1.92-0.02,3.23-1.43,3.24-3.25c0.03-5.37,0.01-10.74,0.01-16.11c0-0.15,0-0.3,0-0.46C181.09,92.68,179.76,92.68,178.38,92.68z
			 M206.52,106.59c0,0.94,0.04,1.82-0.01,2.71c-0.1,1.63,1.47,3.28,3.24,3.22c1.99-0.06,3.99-0.06,5.98,0
			c1.85,0.05,3.3-1.59,3.27-3.28c-0.03-1.62,0-3.24-0.01-4.86c0-0.15-0.01-0.3-0.04-0.45c-0.23-1.4-1.23-2.05-2.46-2.43
			c-1.79-0.55-3.6-1.04-5.39-1.58c-0.32-0.09-0.54-0.28-0.52-0.69c0.04-0.75,0.02-1.5,0-2.25c-0.01-0.34,0.12-0.44,0.45-0.44
			c1.09,0.01,2.18,0.01,3.27,0.01c0.59,0,0.69,0.1,0.69,0.71c0,0.44,0,0.87,0,1.33c0.68,0,1.31,0,1.94,0c0.64,0,1.28,0,1.99,0
			c-0.05-1.18-0.04-2.3-0.17-3.4c-0.18-1.44-1.63-2.59-3.15-2.54c-2.01,0.06-4.02,0.01-6.04,0.01c-0.15,0-0.31-0.01-0.46,0.02
			c-1.81,0.44-2.59,1.88-2.61,3.36c-0.02,1.43-0.01,2.86,0,4.29c0,1.57,0.72,2.5,2.16,2.96c1.97,0.63,3.95,1.24,5.93,1.83
			c0.3,0.09,0.41,0.23,0.41,0.53c-0.01,0.85-0.01,1.7,0,2.56c0.01,0.32-0.12,0.42-0.42,0.41c-1.23-0.01-2.46-0.01-3.68,0
			c-0.31,0-0.42-0.11-0.41-0.42c0.02-0.54,0-1.08,0-1.61C209.15,106.59,207.86,106.59,206.52,106.59z M117.76,112.5
			c-0.08-0.19-0.13-0.33-0.2-0.45c-1.84-3.08-3.68-6.16-5.55-9.22c-0.15-0.25-0.11-0.37,0-0.56c0.8-1.4,1.6-2.8,2.4-4.2
			c0.66-1.16,1.33-2.31,1.99-3.47c0.36-0.63,0.7-1.27,1.06-1.94c-1.48,0-2.89-0.01-4.31,0.01c-0.17,0-0.42,0.13-0.5,0.27
			c-1.2,2.12-2.38,4.25-3.57,6.38c-0.45,0.81-0.91,1.61-1.37,2.42c-0.03-0.01-0.05-0.02-0.08-0.03c0-3.01,0-6.01,0-9.03
			c-1.37,0-2.71,0-4.05,0c0,6.61,0,13.2,0,19.79c1.36,0,2.7,0,4.08,0c0-3.03,0-6.03,0-9.03c0.34,0.43,0.57,0.89,0.83,1.34
			c1.44,2.47,2.88,4.95,4.34,7.41c0.09,0.15,0.32,0.3,0.48,0.3C114.78,112.51,116.25,112.5,117.76,112.5z M188.89,136.74
			c-2.57,0-5.1,0-7.63,0c0-1.45,0-2.85,0-4.3c2.36,0,4.68,0,7,0c0-1.31,0-2.58,0-3.89c-2.36,0-4.69,0-6.99,0c0-1.31,0-2.58,0-3.89
			c2.57,0,5.1,0,7.6,0c0-1.31,0-2.58,0-3.83c-3.92,0-7.8,0-11.7,0c0,6.61,0,13.19,0,19.79c3.92,0,7.81,0,11.72,0
			C188.89,139.33,188.89,138.07,188.89,136.74z M286.85,92.69c-3.94,0-7.83,0-11.72,0c0,6.62,0,13.2,0,19.78c3.92,0,7.82,0,11.7,0
			c0-1.3,0-2.57,0-3.87c-2.56,0-5.09,0-7.62,0c0-1.45,0-2.85,0-4.3c2.36,0,4.68,0,7,0c0-1.31,0-2.58,0-3.88c-2.36,0-4.68,0-7,0
			c0-1.31,0-2.58,0-3.89c2.56,0,5.09,0,7.63,0C286.85,95.23,286.85,93.98,286.85,92.69z M286.69,120.81c0,6.63,0,13.22,0,19.79
			c3.93,0,7.82,0,11.7,0c0-1.3,0-2.57,0-3.88c-2.57,0-5.1,0-7.6,0c0-1.45,0-2.85,0-4.3c2.36,0,4.69,0,7,0c0-1.3,0-2.56,0-3.85
			c-2.35,0-4.68,0-7.01,0c0-1.31,0-2.58,0-3.89c2.55,0,5.09,0,7.62,0c0-1.31,0-2.58,0-3.86
			C294.49,120.81,290.61,120.81,286.69,120.81z M240.53,92.67c0,6.63,0,13.22,0,19.8c3.92,0,7.82,0,11.7,0c0-1.3,0-2.57,0-3.87
			c-2.56,0-5.09,0-7.61,0c0-1.45,0-2.85,0-4.3c2.36,0,4.68,0,7,0c0-1.31,0-2.58,0-3.88c-2.36,0-4.68,0-7,0c0-1.31,0-2.58,0-3.89
			c2.56,0,5.09,0,7.62,0c0-1.31,0-2.58,0-3.85C248.32,92.67,244.44,92.67,240.53,92.67z M220.07,120.79c-1.27,0-2.51,0.01-3.76-0.01
			c-0.28,0-0.41,0.08-0.49,0.36c-0.34,1.17-0.69,2.34-1.05,3.5c-0.79,2.55-1.6,5.09-2.39,7.63c-0.71,2.28-1.43,4.56-2.14,6.84
			c-0.15,0.49-0.29,0.99-0.44,1.51c1.32,0,2.6,0.01,3.88-0.01c0.13,0,0.35-0.15,0.39-0.27c0.33-1.12,0.62-2.26,0.95-3.38
			c0.04-0.13,0.22-0.31,0.34-0.31c1.86-0.02,3.71-0.01,5.55-0.01c0.36,1.24,0.71,2.44,1.08,3.64c0.04,0.14,0.21,0.33,0.33,0.34
			c1.3,0.02,2.61,0.02,3.95,0.02C224.19,134,222.14,127.42,220.07,120.79z M245.91,140.63c-2.07-6.62-4.12-13.22-6.19-19.84
			c-1.02,0-2.04,0-3.06,0c-1.06,0-1.07,0-1.37,0.99c-0.6,1.94-1.17,3.88-1.77,5.81c-0.93,3-1.89,6-2.83,9
			c-0.42,1.33-0.83,2.67-1.25,4.04c1.32,0,2.62,0.01,3.91-0.01c0.13,0,0.33-0.17,0.37-0.29c0.33-1.12,0.62-2.26,0.95-3.38
			c0.04-0.13,0.23-0.29,0.36-0.29c1.84-0.02,3.68-0.01,5.53-0.01c0.36,1.22,0.72,2.41,1.07,3.61c0.06,0.22,0.12,0.39,0.41,0.38
			C243.31,140.63,244.59,140.63,245.91,140.63z M156.7,96.55c0,5.35,0,10.64,0,15.93c1.38,0,2.71,0,4.09,0c0-5.32,0-10.61,0-15.94
			c1.61,0,3.19,0,4.76,0c0-1.31,0-2.58,0-3.84c-4.57,0-9.11,0-13.65,0c0,1.3,0,2.57,0,3.86C153.49,96.55,155.06,96.55,156.7,96.55z
			 M299.37,112.49c0-5.34,0-10.63,0-15.96c1.61,0,3.19,0,4.76,0c0-1.31,0-2.58,0-3.84c-4.57,0-9.11,0-13.65,0c0,1.3,0,2.57,0,3.87
			c1.61,0,3.18,0,4.8,0c0,5.33,0,10.62,0,15.93C296.64,112.49,297.97,112.49,299.37,112.49z M222.71,96.56c1.62,0,3.2,0,4.81,0
			c0,5.33,0,10.62,0,15.92c1.38,0,2.71,0,4.09,0c0-5.32,0-10.61,0-15.94c1.61,0,3.19,0,4.77,0c0-1.31,0-2.58,0-3.85
			c-4.57,0-9.11,0-13.67,0C222.71,93.97,222.71,95.23,222.71,96.56z M143.55,108.62c0-5.35,0-10.64,0-15.93c-1.38,0-2.71,0-4.04,0
			c0,6.62,0,13.2,0,19.78c3.86,0,7.68,0,11.5,0c0-1.3,0-2.57,0-3.86C148.53,108.62,146.08,108.62,143.55,108.62z M114.02,140.6
			c3.87,0,7.69,0,11.51,0c0-1.3,0-2.57,0-3.88c-2.5,0-4.96,0-7.45,0c0-5.32,0-10.6,0-15.9c-1.36,0-2.7,0-4.05,0
			C114.02,127.42,114.02,133.99,114.02,140.6z M134.13,140.62c0-6.63,0-13.22,0-19.79c-1.37,0-2.7,0-4.03,0c0,6.62,0,13.2,0,19.79
			C131.45,140.62,132.77,140.62,134.13,140.62z"/>
		<path class="st1" d="M313.59,132.43c0-3.95,0-7.77,0-11.61c1.29,0,2.56,0,3.85,0c0,6.6,0,13.19,0,19.82
			c-1.23,0-2.43,0.01-3.64-0.01c-0.11,0-0.27-0.12-0.33-0.23c-0.98-1.76-1.95-3.53-2.92-5.3c-1.08-1.96-2.17-3.92-3.31-5.99
			c0,3.9,0,7.69,0,11.5c-1.31,0-2.58,0-3.87,0c0-6.59,0-13.18,0-19.81c1.22,0,2.42-0.01,3.63,0.01c0.11,0,0.27,0.11,0.33,0.22
			c0.8,1.44,1.59,2.9,2.39,4.34C310.98,127.68,312.25,129.99,313.59,132.43z"/>
		<path class="st1" d="M149.93,132.42c0-3.95,0-7.77,0-11.61c1.29,0,2.56,0,3.85,0c0,6.59,0,13.17,0,19.82c-0.24,0-0.49,0-0.73,0
			c-0.67,0-1.34-0.08-1.99,0.02c-0.91,0.14-1.32-0.29-1.71-1.03c-1.55-2.92-3.16-5.81-4.75-8.71c-0.31-0.56-0.63-1.12-0.99-1.76
			c0,3.85,0,7.62,0,11.44c-1.32,0-2.59,0-3.89,0c0-6.57,0-13.16,0-19.8c1.22,0,2.44,0,3.66,0.01c0.1,0,0.24,0.11,0.29,0.21
			c0.8,1.45,1.59,2.9,2.38,4.35C147.32,127.67,148.59,129.99,149.93,132.42z"/>
		<path class="st1" d="M256.63,133.29c-0.95,0-1.87,0-2.83,0c0,2.45,0,4.87,0,7.32c-1.37,0-2.69,0-4.06,0c0-6.57,0-13.16,0-19.79
			c0.12-0.01,0.26-0.02,0.41-0.02c3.31,0,6.62-0.04,9.92,0.02c1.9,0.03,3.15,1.29,3.22,3.22c0.08,1.92,0.02,3.85,0.02,5.78
			c0,1.45-0.57,2.58-1.94,3.21c-0.1,0.05-0.2,0.12-0.27,0.16c0.55,1.26,1.08,2.5,1.63,3.73c0.55,1.23,1.12,2.46,1.7,3.72
			c-1.43,0-2.83,0.01-4.22-0.02c-0.16,0-0.38-0.2-0.45-0.36c-0.74-1.6-1.45-3.22-2.16-4.83
			C257.28,134.72,256.96,134.01,256.63,133.29z M253.81,129.39c1.72,0,3.38-0.01,5.05,0c0.36,0,0.37-0.2,0.37-0.47
			c-0.01-1.26-0.01-2.52,0-3.78c0-0.36-0.11-0.48-0.47-0.47c-0.9,0.02-1.81,0.01-2.71,0.01c-0.74,0-1.49,0-2.24,0
			C253.81,126.26,253.81,127.79,253.81,129.39z"/>
		<path class="st0" d="M202.39,112.5c-1.37,0-2.72-0.01-4.07,0.01c-0.32,0.01-0.48-0.11-0.61-0.39c-0.96-2.18-1.92-4.36-2.89-6.53
			c-0.07-0.15-0.15-0.29-0.23-0.44c-0.92,0-1.84,0-2.8,0c0,2.44,0,4.87,0,7.33c-1.38,0-2.72,0-4.08,0c0-6.58,0-13.17,0-19.81
			c0.18,0,0.36,0,0.55,0c3.19,0,6.38,0,9.57,0c2.1,0,3.46,1.43,3.46,3.46c0,1.81-0.01,3.61,0,5.42c0.01,1.57-0.57,2.77-2.09,3.4
			c-0.04,0.02-0.08,0.06-0.13,0.11C200.18,107.53,201.28,110.01,202.39,112.5z M191.8,101.25c1.7,0,3.38,0,5.06,0
			c0.32,0,0.35-0.18,0.35-0.43c-0.01-1.29-0.01-2.59,0-3.88c0-0.31-0.12-0.42-0.42-0.41c-0.9,0.01-1.8,0-2.71,0
			c-0.76,0-1.52,0-2.29,0C191.8,98.13,191.8,99.67,191.8,101.25z"/>
		<path class="st0" d="M257.09,112.5c0-6.64,0-13.21,0-19.84c0.17,0,0.34,0,0.5,0c2.93,0,5.86,0.01,8.8,0
			c1.37-0.01,2.5,0.41,3.14,1.68c0.23,0.46,0.42,0.99,0.42,1.5c0.03,4.5,0.05,9,0,13.5c-0.02,1.68-1.17,3.1-3.01,3.15
			C263.68,112.56,260.41,112.5,257.09,112.5z M261.19,108.62c1.4,0,2.77-0.01,4.15,0.01c0.42,0.01,0.56-0.1,0.56-0.54
			c-0.02-2.13-0.01-4.26-0.01-6.38c0-1.57,0-3.13,0-4.7c0-0.23,0.03-0.46-0.31-0.46c-1.46,0-2.92,0-4.38,0
			C261.19,100.59,261.19,104.58,261.19,108.62z"/>
		<path class="st1" d="M268.66,140.63c0-6.64,0-13.21,0-19.84c0.2,0,0.38,0,0.56,0c2.93,0,5.87,0.01,8.8,0
			c1.33,0,2.44,0.42,3.06,1.66c0.23,0.46,0.43,0.99,0.44,1.49c0.03,4.52,0.06,9.03,0,13.55c-0.02,1.66-1.16,3.07-3,3.12
			C275.25,140.7,271.98,140.63,268.66,140.63z M272.75,136.75c1.43,0,2.81-0.01,4.19,0.01c0.41,0.01,0.53-0.12,0.52-0.52
			c-0.02-2.18-0.01-4.36-0.01-6.55c0-1.52-0.01-3.03,0.01-4.55c0-0.36-0.11-0.49-0.47-0.47c-0.51,0.02-1.02,0.01-1.53,0.01
			c-0.9,0-1.79,0-2.7,0C272.75,128.72,272.75,132.71,272.75,136.75z"/>
		<path class="st1" d="M159.16,120.79c3.2,0,6.37,0,9.54,0c0.91,0,1.74,0.27,2.38,0.95c0.59,0.63,0.93,1.38,0.93,2.24
			c0.01,4.48,0.04,8.97-0.01,13.45c-0.02,1.7-1.16,3.01-3,3.2c-0.07,0.01-0.14,0-0.2,0c-3.2,0-6.41,0-9.64,0
			C159.16,134.02,159.16,127.44,159.16,120.79z M163.25,124.67c0,4.06,0,8.06,0,12.08c1.41,0,2.79-0.01,4.17,0.01
			c0.41,0.01,0.53-0.12,0.52-0.52c-0.02-2.15-0.01-4.3-0.01-6.44c0-1.55,0-3.1,0-4.65c0-0.26-0.01-0.47-0.36-0.47
			C166.14,124.68,164.71,124.67,163.25,124.67z"/>
		<path class="st1" d="M206.41,127.01c-1.34,0-2.63,0-3.99,0c0-0.58-0.01-1.17,0-1.76c0.01-0.41-0.16-0.58-0.57-0.58
			c-1.23,0.01-2.46,0.02-3.68,0c-0.36-0.01-0.47,0.12-0.47,0.47c0.01,3.72,0.01,7.43,0,11.15c0,0.36,0.12,0.47,0.47,0.47
			c1.26-0.02,2.52-0.01,3.79,0c0.27,0,0.47-0.02,0.46-0.37c-0.01-0.92,0-1.84,0-2.8c-0.89,0-1.75,0-2.63,0c0-1.28,0-2.51,0-3.77
			c2.19,0,4.37,0,6.59,0c0.01,0.11,0.03,0.24,0.03,0.37c0,2.49,0.04,4.98-0.01,7.47c-0.03,1.38-1.1,2.73-2.52,2.86
			c-1.33,0.12-2.68,0.1-4.01,0.12c-0.97,0.02-1.94,0-2.92,0c-1.98,0-3.3-1.44-3.31-3.3c-0.02-4.42-0.02-8.83,0-13.25
			c0.01-1.86,1.33-3.28,3.27-3.29c2-0.01,3.99,0.01,5.99-0.01c1.49-0.01,2.61,0.58,3.25,1.95c0.16,0.35,0.25,0.76,0.26,1.15
			C206.44,124.91,206.41,125.93,206.41,127.01z"/>
		<path class="st0" d="M121.39,92.68c1.36,0,2.69,0,4.07,0c0,0.2,0,0.38,0,0.56c0,4.93,0.01,9.85-0.01,14.78
			c0,0.46,0.1,0.63,0.59,0.61c1.16-0.04,2.32-0.04,3.48,0c0.51,0.02,0.67-0.11,0.67-0.64c-0.02-4.91-0.01-9.82-0.01-14.73
			c0-0.18,0-0.37,0-0.57c1.37,0,2.71,0,4.09,0c0,0.18,0,0.35,0,0.52c0,5.34,0.01,10.67-0.01,16.01c-0.01,1.85-1.33,3.29-3.31,3.29
			c-2,0-3.99-0.01-5.99,0.01c-1.37,0.01-2.5-0.4-3.15-1.68c-0.22-0.44-0.42-0.96-0.42-1.44c-0.03-5.51-0.02-11.01-0.02-16.52
			C121.37,92.81,121.38,92.76,121.39,92.68z"/>
		<path class="st0" d="M178.38,92.68c1.39,0,2.71,0,4.09,0c0,0.16,0,0.31,0,0.46c0,5.37,0.02,10.74-0.01,16.11
			c-0.01,1.82-1.31,3.24-3.24,3.25c-2.15,0.02-4.3,0.03-6.45,0c-1.9-0.03-3.16-1.41-3.18-3.15c-0.05-5.49-0.02-10.98-0.02-16.47
			c0-0.05,0.01-0.1,0.01-0.18c1.34,0,2.68,0,4.07,0c0,0.17,0,0.35,0,0.53c0,4.93,0.01,9.85-0.01,14.78c0,0.49,0.13,0.64,0.63,0.63
			c1.18-0.04,2.35-0.03,3.53,0c0.45,0.01,0.58-0.13,0.57-0.58c-0.02-4.96-0.01-9.92-0.01-14.88
			C178.38,93.02,178.38,92.87,178.38,92.68z"/>
		<path class="st0" d="M206.52,106.59c1.34,0,2.63,0,3.99,0c0,0.54,0.01,1.08,0,1.61c-0.01,0.31,0.1,0.42,0.41,0.42
			c1.23-0.01,2.46-0.01,3.68,0c0.31,0,0.43-0.1,0.42-0.41c-0.01-0.85-0.01-1.7,0-2.56c0-0.3-0.11-0.44-0.41-0.53
			c-1.98-0.6-3.96-1.21-5.93-1.83c-1.44-0.46-2.16-1.39-2.16-2.96c0-1.43-0.02-2.86,0-4.29c0.02-1.48,0.8-2.92,2.61-3.36
			c0.15-0.04,0.3-0.02,0.46-0.02c2.01,0,4.02,0.04,6.04-0.01c1.52-0.04,2.98,1.11,3.15,2.54c0.13,1.1,0.12,2.22,0.17,3.4
			c-0.71,0-1.35,0-1.99,0c-0.63,0-1.26,0-1.94,0c0-0.46,0-0.9,0-1.33c0-0.62-0.1-0.71-0.69-0.71c-1.09,0-2.18,0.01-3.27-0.01
			c-0.33,0-0.46,0.1-0.45,0.44c0.02,0.75,0.03,1.5,0,2.25c-0.02,0.41,0.2,0.6,0.52,0.69c1.79,0.53,3.6,1.02,5.39,1.58
			c1.22,0.38,2.22,1.03,2.46,2.43c0.02,0.15,0.04,0.3,0.04,0.45c0,1.62-0.02,3.24,0.01,4.86c0.03,1.69-1.42,3.34-3.27,3.28
			c-1.99-0.06-3.99-0.06-5.98,0c-1.78,0.06-3.34-1.59-3.24-3.22C206.56,108.41,206.52,107.53,206.52,106.59z"/>
		<path class="st0" d="M117.76,112.5c-1.51,0-2.98,0.01-4.44-0.01c-0.17,0-0.4-0.15-0.48-0.3c-1.46-2.46-2.9-4.94-4.34-7.41
			c-0.26-0.45-0.49-0.91-0.83-1.34c0,3,0,6,0,9.03c-1.38,0-2.71,0-4.08,0c0-6.59,0-13.18,0-19.79c1.34,0,2.68,0,4.05,0
			c0,3.02,0,6.02,0,9.03c0.03,0.01,0.05,0.02,0.08,0.03c0.46-0.81,0.91-1.61,1.37-2.42c1.19-2.13,2.36-4.26,3.57-6.38
			c0.08-0.14,0.33-0.27,0.5-0.27c1.41-0.02,2.83-0.01,4.31-0.01c-0.36,0.67-0.7,1.31-1.06,1.94c-0.66,1.16-1.33,2.31-1.99,3.47
			c-0.8,1.4-1.6,2.8-2.4,4.2c-0.11,0.19-0.15,0.31,0,0.56c1.87,3.06,3.71,6.14,5.55,9.22C117.63,112.17,117.68,112.31,117.76,112.5z
			"/>
		<path class="st1" d="M188.89,136.74c0,1.34,0,2.59,0,3.87c-3.91,0-7.81,0-11.72,0c0-6.6,0-13.18,0-19.79c3.9,0,7.78,0,11.7,0
			c0,1.25,0,2.52,0,3.83c-2.51,0-5.04,0-7.6,0c0,1.31,0,2.58,0,3.89c2.31,0,4.63,0,6.99,0c0,1.31,0,2.58,0,3.89c-2.32,0-4.64,0-7,0
			c0,1.45,0,2.85,0,4.3C183.79,136.74,186.32,136.74,188.89,136.74z"/>
		<path class="st0" d="M286.85,92.69c0,1.29,0,2.54,0,3.84c-2.54,0-5.08,0-7.63,0c0,1.31,0,2.58,0,3.89c2.32,0,4.65,0,7,0
			c0,1.31,0,2.58,0,3.88c-2.32,0-4.65,0-7,0c0,1.45,0,2.85,0,4.3c2.52,0,5.05,0,7.62,0c0,1.31,0,2.58,0,3.87c-3.89,0-7.78,0-11.7,0
			c0-6.58,0-13.17,0-19.78C279.01,92.69,282.91,92.69,286.85,92.69z"/>
		<path class="st1" d="M286.69,120.81c3.91,0,7.8,0,11.71,0c0,1.28,0,2.55,0,3.86c-2.54,0-5.07,0-7.62,0c0,1.31,0,2.58,0,3.89
			c2.34,0,4.67,0,7.01,0c0,1.3,0,2.55,0,3.85c-2.31,0-4.64,0-7,0c0,1.45,0,2.85,0,4.3c2.5,0,5.03,0,7.6,0c0,1.31,0,2.58,0,3.88
			c-3.88,0-7.77,0-11.7,0C286.69,134.03,286.69,127.44,286.69,120.81z"/>
		<path class="st0" d="M240.53,92.67c3.91,0,7.79,0,11.71,0c0,1.28,0,2.55,0,3.85c-2.53,0-5.06,0-7.62,0c0,1.31,0,2.58,0,3.89
			c2.32,0,4.65,0,7,0c0,1.31,0,2.58,0,3.88c-2.32,0-4.65,0-7,0c0,1.45,0,2.85,0,4.3c2.52,0,5.05,0,7.61,0c0,1.31,0,2.58,0,3.87
			c-3.88,0-7.78,0-11.7,0C240.53,105.89,240.53,99.31,240.53,92.67z"/>
		<path class="st1" d="M220.07,120.79c2.07,6.62,4.12,13.21,6.19,19.84c-1.34,0-2.64,0.01-3.95-0.02c-0.11,0-0.28-0.2-0.33-0.34
			c-0.37-1.2-0.71-2.4-1.08-3.64c-1.84,0-3.7-0.01-5.55,0.01c-0.12,0-0.3,0.18-0.34,0.31c-0.33,1.12-0.62,2.26-0.95,3.38
			c-0.04,0.12-0.25,0.27-0.39,0.27c-1.28,0.02-2.56,0.01-3.88,0.01c0.15-0.52,0.29-1.02,0.44-1.51c0.71-2.28,1.42-4.56,2.14-6.84
			c0.8-2.55,1.6-5.09,2.39-7.63c0.36-1.16,0.72-2.33,1.05-3.5c0.08-0.28,0.2-0.36,0.49-0.36
			C217.56,120.8,218.8,120.79,220.07,120.79z M218.02,126.26c-0.58,2.25-1.13,4.4-1.7,6.59c1.14,0,2.25,0,3.38,0
			C219.15,130.68,218.6,128.53,218.02,126.26z"/>
		<path class="st1" d="M245.91,140.63c-1.32,0-2.6-0.01-3.87,0.01c-0.29,0-0.35-0.16-0.41-0.38c-0.35-1.2-0.71-2.4-1.07-3.61
			c-1.85,0-3.69-0.01-5.53,0.01c-0.12,0-0.32,0.17-0.36,0.29c-0.33,1.12-0.62,2.26-0.95,3.38c-0.04,0.13-0.24,0.29-0.37,0.29
			c-1.29,0.02-2.59,0.01-3.91,0.01c0.42-1.37,0.83-2.7,1.25-4.04c0.94-3,1.89-6,2.83-9c0.6-1.93,1.17-3.88,1.77-5.81
			c0.31-0.99,0.32-0.99,1.37-0.99c1.02,0,2.04,0,3.06,0C241.79,127.41,243.84,134.01,245.91,140.63z M237.67,126.26
			c-0.58,2.24-1.13,4.4-1.7,6.59c1.16,0,2.26,0,3.38,0C238.79,130.66,238.24,128.51,237.67,126.26z"/>
		<path class="st0" d="M156.7,96.55c-1.64,0-3.2,0-4.8,0c0-1.29,0-2.56,0-3.86c4.53,0,9.08,0,13.65,0c0,1.26,0,2.53,0,3.84
			c-1.57,0-3.15,0-4.76,0c0,5.33,0,10.62,0,15.94c-1.37,0-2.71,0-4.09,0C156.7,107.19,156.7,101.89,156.7,96.55z"/>
		<path class="st0" d="M299.37,112.49c-1.4,0-2.72,0-4.09,0c0-5.3,0-10.59,0-15.93c-1.61,0-3.19,0-4.8,0c0-1.31,0-2.58,0-3.87
			c4.53,0,9.08,0,13.65,0c0,1.26,0,2.53,0,3.84c-1.57,0-3.15,0-4.76,0C299.37,101.86,299.37,107.15,299.37,112.49z"/>
		<path class="st0" d="M222.71,96.56c0-1.33,0-2.59,0-3.87c4.56,0,9.1,0,13.67,0c0,1.27,0,2.54,0,3.85c-1.58,0-3.16,0-4.77,0
			c0,5.33,0,10.62,0,15.94c-1.37,0-2.71,0-4.09,0c0-5.29,0-10.58,0-15.92C225.9,96.56,224.33,96.56,222.71,96.56z"/>
		<path class="st0" d="M143.55,108.62c2.53,0,4.98,0,7.46,0c0,1.29,0,2.56,0,3.86c-3.82,0-7.64,0-11.5,0c0-6.58,0-13.17,0-19.78
			c1.33,0,2.67,0,4.04,0C143.55,97.98,143.55,103.27,143.55,108.62z"/>
		<path class="st1" d="M114.02,140.6c0-6.61,0-13.18,0-19.78c1.35,0,2.69,0,4.05,0c0,5.3,0,10.58,0,15.9c2.49,0,4.95,0,7.45,0
			c0,1.31,0,2.58,0,3.88C121.71,140.6,117.88,140.6,114.02,140.6z"/>
		<path class="st1" d="M134.13,140.62c-1.35,0-2.68,0-4.03,0c0-6.6,0-13.18,0-19.79c1.33,0,2.66,0,4.03,0
			C134.13,127.4,134.13,133.99,134.13,140.62z"/>
		<path class="st2" d="M253.81,129.39c0-1.59,0-3.12,0-4.71c0.76,0,1.5,0,2.24,0c0.9,0,1.81,0.01,2.71-0.01
			c0.36-0.01,0.48,0.11,0.47,0.47c-0.02,1.26-0.01,2.52,0,3.78c0,0.26-0.01,0.47-0.37,0.47
			C257.2,129.38,255.53,129.39,253.81,129.39z"/>
		<path class="st2" d="M191.8,101.25c0-1.58,0-3.12,0-4.71c0.77,0,1.53,0,2.29,0c0.9,0,1.8,0.01,2.71,0c0.31,0,0.42,0.1,0.42,0.41
			c-0.01,1.29-0.01,2.59,0,3.88c0,0.25-0.03,0.43-0.35,0.43C195.18,101.25,193.5,101.25,191.8,101.25z"/>
		<path class="st2" d="M261.19,108.62c0-4.03,0-8.03,0-12.08c1.46,0,2.92,0,4.38,0c0.34,0,0.31,0.23,0.31,0.46c0,1.57,0,3.13,0,4.7
			c0,2.13-0.01,4.26,0.01,6.38c0,0.44-0.14,0.55-0.56,0.54C263.96,108.6,262.59,108.62,261.19,108.62z"/>
		<path class="st2" d="M272.75,136.75c0-4.05,0-8.03,0-12.08c0.91,0,1.8,0,2.7,0c0.51,0,1.02,0.02,1.53-0.01
			c0.36-0.02,0.48,0.11,0.47,0.47c-0.02,1.52-0.01,3.03-0.01,4.55c0,2.18-0.01,4.36,0.01,6.55c0,0.41-0.12,0.53-0.52,0.52
			C275.56,136.74,274.18,136.75,272.75,136.75z"/>
		<path class="st2" d="M163.25,124.67c1.46,0,2.89,0.01,4.32,0c0.36,0,0.37,0.21,0.36,0.47c0,1.55,0,3.1,0,4.65
			c0,2.15-0.01,4.3,0.01,6.44c0,0.41-0.12,0.53-0.52,0.52c-1.38-0.02-2.76-0.01-4.17-0.01
			C163.25,132.73,163.25,128.73,163.25,124.67z"/>
		<path class="st2" d="M218.02,126.26c0.58,2.27,1.13,4.43,1.68,6.59c-1.13,0-2.23,0-3.38,0
			C216.88,130.66,217.44,128.51,218.02,126.26z"/>
		<path class="st2" d="M237.67,126.26c0.57,2.25,1.13,4.41,1.68,6.59c-1.12,0-2.22,0-3.38,0
			C236.53,130.66,237.09,128.5,237.67,126.26z"/>
	</g>
</g>
</svg>
